PathFileType	4	(X/Y/Z)	C:\Users\willi\Documents\UniDataLokal\DATA_Hans_PhD\TD06\B\3DGAIT_B_W12\marker_experimental.trc
DataRate	CameraRate	NumFrames	NumMarkers	Units	OrigDataRate	OrigDataStartFrame	OrigNumFrames
100.000000	100.000000	4	86	mm	100.000000	61	99
Frame#	Time	RBAK			C7			CLAV			T10			STRN			RASI			RPSI			LPSI			LASI			LPELV			RPELV			RTHI1			RTHI2			RTHI3			RTHI			RKNE			RPAT			RLKNEL			RLKNEM			RLPAT			RTIB1			RTIB2			RTIB3			RTIB			RANK			RHEEL			RTOE			RM5			LTHI1			LTHI2			LTHI3			LTHI			LKNE			LPAT			LLKNE			LLKNEM			LLPAT			LTIB1			LTIB2			LTIB3			LTIB			LANK			LHEEL			LTOE			LM5			*45			*46			*47			*48			*49			*50			*51			*52			*53			*54			*55			*56			*57			*58			*59			*60			*61			*62			*63			*64			*65			*66			*67			*68			*69			*70			*71			*72			*73			*74			*75			*76			*77			*78			*79			*80			*81			*82			*83			*84			*85			
		X1	Y1	Z1	X2	Y2	Z2	X3	Y3	Z3	X4	Y4	Z4	X5	Y5	Z5	X6	Y6	Z6	X7	Y7	Z7	X8	Y8	Z8	X9	Y9	Z9	X10	Y10	Z10	X11	Y11	Z11	X12	Y12	Z12	X13	Y13	Z13	X14	Y14	Z14	X15	Y15	Z15	X16	Y16	Z16	X17	Y17	Z17	X18	Y18	Z18	X19	Y19	Z19	X20	Y20	Z20	X21	Y21	Z21	X22	Y22	Z22	X23	Y23	Z23	X24	Y24	Z24	X25	Y25	Z25	X26	Y26	Z26	X27	Y27	Z27	X28	Y28	Z28	X29	Y29	Z29	X30	Y30	Z30	X31	Y31	Z31	X32	Y32	Z32	X33	Y33	Z33	X34	Y34	Z34	X35	Y35	Z35	X36	Y36	Z36	X37	Y37	Z37	X38	Y38	Z38	X39	Y39	Z39	X40	Y40	Z40	X41	Y41	Z41	X42	Y42	Z42	X43	Y43	Z43	X44	Y44	Z44	X45	Y45	Z45	X46	Y46	Z46	X47	Y47	Z47	X48	Y48	Z48	X49	Y49	Z49	X50	Y50	Z50	X51	Y51	Z51	X52	Y52	Z52	X53	Y53	Z53	X54	Y54	Z54	X55	Y55	Z55	X56	Y56	Z56	X57	Y57	Z57	X58	Y58	Z58	X59	Y59	Z59	X60	Y60	Z60	X61	Y61	Z61	X62	Y62	Z62	X63	Y63	Z63	X64	Y64	Z64	X65	Y65	Z65	X66	Y66	Z66	X67	Y67	Z67	X68	Y68	Z68	X69	Y69	Z69	X70	Y70	Z70	X71	Y71	Z71	X72	Y72	Z72	X73	Y73	Z73	X74	Y74	Z74	X75	Y75	Z75	X76	Y76	Z76	X77	Y77	Z77	X78	Y78	Z78	X79	Y79	Z79	X80	Y80	Z80	X81	Y81	Z81	X82	Y82	Z82	X83	Y83	Z83	X84	Y84	Z84	X85	Y85	Z85	X86	Y86	Z86	

62	0.61	1299.027465820312	1053.526245117188	-209.4611511230466	1310.784057617188	1129.252075195312	-311.6585998535154	1417.483520507812	1073.968383789062	-318.0466308593747	1289.980712890625	898.5312500000001	-304.6461486816404	1464.586791992188	960.7819213867189	-314.7068176269528	1384.416870117188	759.4500122070314	-198.9436950683591	1263.458984375	789.7296752929689	-260.6051330566404	1270.8974609375	795.7645263671876	-348.0368347167966	1397.29248046875	769.4024047851564	-394.1622619628903	1360.069580078125	802.4030761718751	-415.7303466796873	1335.866943359375	808.7181396484376	-186.6378631591794	1393.978881835938	455.1540832519532	-216.5700988769529	1371.925537109375	502.9497375488282	-171.0306091308591	1354.61767578125	404.1529541015626	-185.5439147949216	1308.493286132812	441.3255310058594	-138.685852050781	1316.203369140625	366.8675842285157	-181.945129394531	1371.094604492188	350.1374816894532	-219.6288452148435	1306.162475585938	342.7122497558594	-186.950729370117	1303.883544921875	335.2003784179688	-284.2635192871091	1313.559692382812	299.6013488769532	-221.7724761962888	1243.0166015625	253.7725219726563	-214.6833190917966	1187.348022460938	256.7326965332032	-179.0529327392576	1161.186279296875	212.4078826904298	-221.0228729248045	1133.503540039062	248.0130920410157	-152.1408233642576	1029.3388671875	176.5131988525391	-207.4739532470701	1000.731018066406	216.9205322265626	-248.8442382812498	1048.323974609375	66.44785308837898	-245.7601623535154	1017.903930664062	68.08482360839849	-205.4940643310545	1432.09375	549.9754638671876	-428.7741394042966	1476.50439453125	516.4047851562501	-391.7210998535153	1456.440673828125	456.0046386718751	-412.3417053222653	1442.7392578125	491.8831481933595	-462.7832031249997	1465.190795898438	391.2718505859376	-405.5163269042966	1511.766845703125	413.707489013672	-368.5004882812497	1459.3115234375	360.6022033691407	-405.5002441406247	1465.540283203125	363.3367919921876	-303.7229919433591	1506.634887695312	355.643768310547	-363.260559082031	1492.220825195312	241.4173278808595	-367.7663574218747	1446.180419921875	196.4075622558595	-395.8686218261716	1482.2861328125	147.1493377685548	-353.3500061035153	1424.71533203125	143.9382324218751	-419.0400695800778	1433.03857421875	52.01791000366219	-364.8547668457028	1386.65185546875	36.85888290405282	-329.6898498535154	1552.187377929688	33.99670791625986	-336.5851745605466	1526.561401367188	14.72377586364756	-386.0680847167966	nan	nan	nan	nan	nan	nan	nan	nan	nan	nan	nan	nan	nan	nan	nan	nan	nan	nan	nan	nan	nan	nan	nan	nan	nan	nan	nan	nan	nan	nan	nan	nan	nan	nan	nan	nan	nan	nan	nan	nan	nan	nan	nan	nan	nan	nan	nan	nan	nan	nan	nan	nan	nan	nan	nan	nan	nan	nan	nan	nan	nan	nan	nan	nan	nan	nan	nan	nan	nan	nan	nan	nan	nan	nan	nan	nan	nan	nan	nan	nan	nan	nan	nan	nan	nan	nan	nan	nan	nan	nan	nan	nan	nan	nan	nan	nan	nan	nan	nan	nan	nan	nan	nan	nan	nan	nan	nan	nan	nan	nan	nan	nan	nan	nan	nan	nan	nan	nan	nan	nan	nan	nan	nan	
63	0.62	1312.343994140625	1056.155029296875	-210.2881622314451	1324.467529296875	1131.973266601562	-312.3222656249998	1431.282592773438	1076.95849609375	-318.1778564453122	1304.260375976562	901.0485229492189	-305.4046630859373	1478.529418945312	963.8507080078126	-314.7428283691403	1398.803466796875	761.8084716796876	-199.7657470703122	1277.786987304688	792.4559326171876	-260.9588623046873	1285.215209960938	798.6835327148439	-348.4253845214841	1411.362182617188	772.1557006835939	-395.1164245605466	1374.220581054688	805.3474731445314	-416.3400268554685	1350.246826171875	811.2803344726564	-187.3365325927732	1417.031005859375	459.0015869140626	-219.4093780517576	1394.44775390625	506.0178833007814	-173.2289581298826	1380.015625	406.6445922851563	-187.7249603271482	1333.780883789062	442.1905212402344	-139.8124542236326	1342.5205078125	368.3100891113282	-183.5591125488279	1397.313598632812	352.8115844726564	-222.3506927490232	1332.773559570312	343.9287414550782	-188.6094970703122	1328.315673828125	338.0408020019532	-286.3579406738279	1339.954711914062	301.3913879394532	-224.3947448730466	1269.62060546875	255.3104400634766	-216.9699707031248	1214.400634765625	257.7868652343751	-180.3954925537107	1187.563354492188	213.8199462890626	-222.787643432617	1161.05322265625	248.4995727539063	-152.700988769531	1056.392333984375	177.0541076660157	-207.7806549072264	1025.553588867188	216.7652282714844	-248.1812438964842	1080.246459960938	68.94096374511726	-246.915573120117	1049.878540039062	68.7389221191407	-206.7584838867186	1441.728149414062	550.9621582031251	-429.4943847656247	1485.386962890625	516.1971435546876	-392.750305175781	1463.61669921875	456.3439025878907	-413.263488769531	1450.422485351562	492.4206848144532	-463.5403747558591	1470.613647460938	391.1651000976564	-406.3326721191403	1517.852905273438	412.5077209472657	-369.4381103515622	1464.087890625	360.610809326172	-406.2062072753903	1470.764038085938	363.2625427246095	-304.2870483398435	1511.493896484375	354.630096435547	-364.1871948242185	1494.970458984375	240.8311309814454	-368.6340637207028	1447.906860351562	196.5890350341798	-396.391174316406	1483.396850585938	146.7622222900391	-354.0790100097653	1425.356811523438	144.3873138427735	-419.2514343261716	1432.8232421875	52.02058792114266	-365.1906127929685	1386.517211914062	37.10825729370126	-330.0048522949216	1552.014892578125	34.15419006347665	-336.7748413085935	1526.424072265625	14.76263999938974	-386.2135620117185	nan	nan	nan	nan	nan	nan	nan	nan	nan	nan	nan	nan	nan	nan	nan	nan	nan	nan	nan	nan	nan	nan	nan	nan	nan	nan	nan	nan	nan	nan	nan	nan	nan	nan	nan	nan	nan	nan	nan	nan	nan	nan	nan	nan	nan	nan	nan	nan	nan	nan	nan	nan	nan	nan	nan	nan	nan	nan	nan	nan	nan	nan	nan	nan	nan	nan	nan	nan	nan	nan	nan	nan	nan	nan	nan	nan	nan	nan	nan	nan	nan	nan	nan	nan	nan	nan	nan	nan	nan	nan	nan	nan	nan	nan	nan	nan	nan	nan	nan	nan	nan	nan	nan	nan	nan	nan	nan	nan	nan	nan	nan	nan	nan	nan	nan	nan	nan	nan	nan	nan	nan	nan	nan	
64	0.63	1325.455932617188	1058.929321289062	-211.0248107910154	1337.987060546875	1134.91650390625	-312.910705566406	1444.884887695312	1080.1748046875	-318.1784362792966	1318.363525390625	903.7915649414064	-306.2304687499998	1492.2666015625	967.1662597656251	-314.693176269531	1412.981323242188	764.5280151367189	-200.6071624755857	1291.943725585938	795.5767211914064	-261.3554382324216	1299.394165039062	801.8374023437501	-348.8959350585935	1425.263671875	774.9075927734376	-396.0650329589841	1388.346435546875	808.4473876953126	-416.9468994140623	1364.426513671875	814.2013549804689	-188.1008605957029	1439.565551757812	463.687469482422	-222.4795227050779	1416.609497070312	509.8307495117189	-175.5599060058591	1405.080078125	410.0610351562501	-190.0709533691404	1359.013061523438	443.9696044921876	-140.9033203124997	1368.3662109375	370.7418823242188	-185.2902374267576	1423.149536132812	356.5252685546876	-225.1899719238279	1358.9345703125	346.1387634277344	-190.3530426025388	1352.423217773438	341.5349121093751	-288.5386047363279	1366.173828125	304.1206054687501	-226.9067535400388	1296.413208007812	257.3209533691407	-219.0662536621091	1241.543823242188	259.0075683593751	-181.8091888427732	1214.622314453125	214.9654235839845	-224.4662322998045	1188.499389648438	248.9825286865235	-153.5057678222654	1084.63916015625	176.2841033935547	-208.1410217285154	1051.175903320312	214.4471893310547	-247.9777069091795	1114.380493164062	70.18287658691413	-247.6481170654295	1084.092529296875	68.01064300537116	-207.6369476318357	1450.679443359375	551.8840942382814	-429.9559631347653	1493.4306640625	515.8602905273439	-393.3651428222653	1469.845336914062	456.6434631347657	-413.7758178710935	1457.421264648438	492.9155273437501	-463.8900756835935	1474.9599609375	391.1377868652345	-406.7386779785153	1522.773071289062	411.3743286132814	-369.5299682617185	1467.810180664062	360.7384643554689	-406.5509948730466	1474.48974609375	363.1958923339845	-304.3515319824216	1515.2265625	353.7908325195314	-364.4759521484372	1497.051025390625	240.5089569091798	-369.2039489746091	1449.143676757812	196.8934326171876	-396.6429748535153	1484.148193359375	146.5823822021485	-354.5814514160153	1425.837524414062	145.0031127929688	-419.3284606933591	1432.675659179688	52.08547973632821	-365.4836120605466	1386.395263671875	37.45773696899423	-330.2916564941404	1551.9013671875	34.18109893798837	-336.8217163085935	1526.365966796875	14.75950527191172	-386.2249755859372	nan	nan	nan	nan	nan	nan	nan	nan	nan	nan	nan	nan	nan	nan	nan	nan	nan	nan	nan	nan	nan	nan	nan	nan	nan	nan	nan	nan	nan	nan	nan	nan	nan	nan	nan	nan	nan	nan	nan	nan	nan	nan	nan	nan	nan	nan	nan	nan	nan	nan	nan	nan	nan	nan	nan	nan	nan	nan	nan	nan	nan	nan	nan	nan	nan	nan	nan	nan	nan	nan	nan	nan	nan	nan	nan	nan	nan	nan	nan	nan	nan	nan	nan	nan	nan	nan	nan	nan	nan	nan	nan	nan	nan	nan	nan	nan	nan	nan	nan	nan	nan	nan	nan	nan	nan	nan	nan	nan	nan	nan	nan	nan	nan	nan	nan	nan	nan	nan	nan	nan	nan	nan	nan	
65	0.64	1338.391479492188	1061.78271484375	-211.6880340576169	1351.365234375	1138.007934570312	-313.4370117187498	1458.3154296875	1083.541870117188	-318.0682373046872	1332.309326171875	906.6903076171876	-307.1154785156248	1505.82958984375	970.6486206054689	-314.5811767578122	1426.969482421875	767.5257568359376	-201.4550628662107	1305.940795898438	799.0036010742189	-261.7886047363279	1313.442016601562	805.1522216796876	-349.4396362304685	1439.009033203125	777.6011962890626	-396.9962158203122	1402.454956054688	811.6257324218751	-417.5392150878903	1378.423950195312	817.3983764648439	-188.9171295166013	1461.547973632812	469.0835266113282	-225.6576232910154	1438.350708007812	514.2955322265626	-177.9368438720701	1429.75634765625	414.2880249023439	-192.4858551025388	1384.072875976562	446.5646972656251	-141.9314270019529	1393.690307617188	374.0364074707032	-187.0519714355466	1448.548461914062	361.1452941894532	-228.0083312988279	1384.59130859375	349.2189331054688	-192.0906066894529	1376.310302734375	345.4717712402344	-290.6914978027341	1392.180541992188	307.6561584472657	-229.1782226562497	1323.327270507812	259.6912841796876	-220.8619537353513	1268.69140625	260.3292541503907	-183.2332458496091	1242.299194335938	215.7911071777345	-225.9772491455076	1215.77099609375	249.4234619140626	-154.5349426269529	1113.95361328125	174.2420959472657	-208.5961303710936	1077.712768554688	210.1153717041016	-248.3003540039061	1150.211181640625	70.2669982910157	-247.8815765380857	1120.065185546875	66.1734695434571	-208.0398254394529	1459.067993164062	552.7658081054689	-430.1895446777341	1500.773071289062	515.4486694335939	-393.6111755371091	1475.307739257812	456.9605102539064	-413.9414062499997	1463.90283203125	493.4393920898439	-463.9053039550778	1478.444091796875	391.2500915527345	-406.8050537109372	1526.744018554688	410.3672180175782	-368.9832763671872	1470.694702148438	361.0413208007814	-406.6076965332028	1477.0068359375	363.2037658691407	-304.055480957031	1518.052490234375	353.1723022460939	-364.266418457031	1498.61962890625	240.4648437500001	-369.5421142578122	1450.027709960938	197.3517456054688	-396.7087707519528	1484.650756835938	146.6269989013673	-354.922180175781	1426.232055664062	145.805145263672	-419.3611755371091	1432.60400390625	52.25043487548837	-365.7852783203122	1386.3037109375	37.94664764404305	-330.5960998535154	1551.843505859375	34.1142463684083	-336.802551269531	1526.378662109375	14.71003246307382	-386.1896667480466	nan	nan	nan	nan	nan	nan	nan	nan	nan	nan	nan	nan	nan	nan	nan	nan	nan	nan	nan	nan	nan	nan	nan	nan	nan	nan	nan	nan	nan	nan	nan	nan	nan	nan	nan	nan	nan	nan	nan	nan	nan	nan	nan	nan	nan	nan	nan	nan	nan	nan	nan	nan	nan	nan	nan	nan	nan	nan	nan	nan	nan	nan	nan	nan	nan	nan	nan	nan	nan	nan	nan	nan	nan	nan	nan	nan	nan	nan	nan	nan	nan	nan	nan	nan	nan	nan	nan	nan	nan	nan	nan	nan	nan	nan	nan	nan	nan	nan	nan	nan	nan	nan	nan	nan	nan	nan	nan	nan	nan	nan	nan	nan	nan	nan	nan	nan	nan	nan	nan	nan	nan	nan	nan	
